<?xml version="1.0" encoding="UTF-8" standalone="no"?>
<!-- Generator: Adobe Illustrator 19.0.0, SVG Export Plug-In . SVG Version: 6.00 Build 0)  -->

<svg
   version="1.1"
   id="Layer_1"
   x="0px"
   y="0px"
   viewBox="0 0 512.002 512.002"
   style="enable-background:new 0 0 512.002 512.002;"
   xml:space="preserve"
   sodipodi:docname="sailboat.svg"
   inkscape:version="1.1 (1:1.1+202105261517+ce6663b3b7)"
   xmlns:inkscape="http://www.inkscape.org/namespaces/inkscape"
   xmlns:sodipodi="http://sodipodi.sourceforge.net/DTD/sodipodi-0.dtd"
   xmlns="http://www.w3.org/2000/svg"
   xmlns:svg="http://www.w3.org/2000/svg"><defs
   id="defs41" /><sodipodi:namedview
   id="namedview39"
   pagecolor="#ffffff"
   bordercolor="#999999"
   borderopacity="1"
   inkscape:pageshadow="0"
   inkscape:pageopacity="0"
   inkscape:pagecheckerboard="0"
   showgrid="false"
   inkscape:zoom="0.73046588"
   inkscape:cx="83.50835"
   inkscape:cy="253.94752"
   inkscape:window-width="1280"
   inkscape:window-height="962"
   inkscape:window-x="0"
   inkscape:window-y="25"
   inkscape:window-maximized="1"
   inkscape:current-layer="Layer_1" />
<g
   id="g6"
   transform="matrix(-1,0,0,1,512.00171,0)"
   style="fill:#ffffff">
	<g
   id="g4"
   style="fill:#ffffff">
		<path
   d="m 511.556,449.552 c -1.033,-3.072 -3.712,-5.299 -6.921,-5.734 L 307.2,416.579 V 394.58 l 160.896,23.467 c 3.337,0.452 6.75,-1.092 8.533,-4.028 1.775,-2.935 1.621,-6.647 -0.384,-9.421 L 461.295,383.99 C 390.238,286.096 354.406,236.722 307.2,126.25 V 95.743 l 75.128,15.027 c 3.849,0.768 7.74,-1.195 9.412,-4.762 1.664,-3.567 0.674,-7.808 -2.406,-10.266 L 304,27.476 c -2.56,-2.057 -6.084,-2.449 -9.028,-1.033 -2.961,1.417 -4.838,4.412 -4.838,7.689 v 28.655 c -79.855,37.248 -184.132,116.634 -238.515,284.45 -0.777,2.389 -0.461,5.001 0.87,7.134 1.323,2.133 3.533,3.576 6.016,3.942 l 231.629,33.775 v 22.135 L 9.702,375.542 c -2.475,-0.341 -4.915,0.401 -6.775,2.022 -1.86,1.622 -2.927,3.969 -2.927,6.435 0,56.465 45.935,102.4 102.4,102.4 h 375.467 c 2.261,0 4.437,-0.896 6.033,-2.5 l 25.6,-25.6 c 2.295,-2.296 3.089,-5.684 2.056,-8.747 z M 290.133,354.977 c -28.484,-60.39 -14.285,-157.995 0,-221.602 z"
   id="path2"
   style="fill:#ffffff" />
	</g>
</g>
<g
   id="g8">
</g>
<g
   id="g10">
</g>
<g
   id="g12">
</g>
<g
   id="g14">
</g>
<g
   id="g16">
</g>
<g
   id="g18">
</g>
<g
   id="g20">
</g>
<g
   id="g22">
</g>
<g
   id="g24">
</g>
<g
   id="g26">
</g>
<g
   id="g28">
</g>
<g
   id="g30">
</g>
<g
   id="g32">
</g>
<g
   id="g34">
</g>
<g
   id="g36">
</g>
</svg>
